<?xml version="1.0" encoding="UTF-8"?>
<svg width="700pt" height="700pt" version="1.1" viewBox="0 0 700 700" xmlns="http://www.w3.org/2000/svg" xmlns:xlink="http://www.w3.org/1999/xlink">
 <defs>
  <symbol id="u" overflow="visible">
   <path d="m7.5-0.45312c-0.38672 0.21094-0.78906 0.35938-1.2031 0.45312-0.41797 0.10156-0.85547 0.15625-1.3125 0.15625-1.3672 0-2.4453-0.37891-3.2344-1.1406-0.79297-0.75781-1.1875-1.7891-1.1875-3.0938 0-1.3008 0.39453-2.332 1.1875-3.0938 0.78906-0.75781 1.8672-1.1406 3.2344-1.1406 0.45703 0 0.89453 0.054688 1.3125 0.15625 0.41406 0.09375 0.81641 0.24609 1.2031 0.45312v1.6875c-0.38672-0.26953-0.77344-0.46094-1.1562-0.57812-0.375-0.125-0.77344-0.1875-1.1875-0.1875-0.75 0-1.3438 0.24219-1.7812 0.71875-0.42969 0.48047-0.64062 1.1406-0.64062 1.9844s0.21094 1.5078 0.64062 1.9844c0.4375 0.48047 1.0312 0.71875 1.7812 0.71875 0.41406 0 0.8125-0.054688 1.1875-0.17188 0.38281-0.125 0.76953-0.32031 1.1562-0.59375z"/>
  </symbol>
  <symbol id="e" overflow="visible">
   <path d="m5.4844-4.4531c-0.16797-0.082031-0.33984-0.14062-0.51562-0.17188-0.16797-0.039062-0.33594-0.0625-0.5-0.0625-0.5 0-0.88672 0.16406-1.1562 0.48438-0.27344 0.32422-0.40625 0.78125-0.40625 1.375v2.8281h-1.9688v-6.125h1.9688v1c0.25-0.39453 0.53516-0.6875 0.85938-0.875 0.32031-0.1875 0.71094-0.28125 1.1719-0.28125 0.0625 0 0.12891 0.007812 0.20312 0.015625 0.082031 0 0.19531 0.011719 0.34375 0.03125z"/>
  </symbol>
  <symbol id="b" overflow="visible">
   <path d="m7.0625-3.0781v0.5625h-4.5781c0.039063 0.46094 0.20312 0.80469 0.48438 1.0312 0.28906 0.23047 0.69141 0.34375 1.2031 0.34375 0.40625 0 0.82031-0.0625 1.25-0.1875 0.4375-0.125 0.88281-0.30469 1.3438-0.54688v1.5c-0.46094 0.17969-0.92188 0.30859-1.3906 0.39062-0.46094 0.09375-0.92188 0.14062-1.3906 0.14062-1.1055 0-1.9648-0.28125-2.5781-0.84375-0.61719-0.5625-0.92188-1.3516-0.92188-2.375 0-1 0.30078-1.7852 0.90625-2.3594 0.60156-0.57031 1.4297-0.85938 2.4844-0.85938 0.96875 0 1.7383 0.29297 2.3125 0.875 0.58203 0.58594 0.875 1.3594 0.875 2.3281zm-2.0156-0.65625c0-0.36328-0.10938-0.66016-0.32812-0.89062-0.21875-0.22656-0.5-0.34375-0.84375-0.34375-0.38672 0-0.69922 0.10938-0.9375 0.32812-0.23047 0.21094-0.375 0.51172-0.4375 0.90625z"/>
  </symbol>
  <symbol id="d" overflow="visible">
   <path d="m3.6875-2.75c-0.40625 0-0.71484 0.070312-0.92188 0.20312-0.21094 0.13672-0.3125 0.33984-0.3125 0.60938 0 0.25 0.082031 0.44922 0.25 0.59375 0.16406 0.13672 0.39453 0.20312 0.6875 0.20312 0.375 0 0.6875-0.12891 0.9375-0.39062 0.25-0.26953 0.375-0.60156 0.375-1v-0.21875zm2.9844-0.75v3.5h-1.9688v-0.90625c-0.26172 0.375-0.55859 0.64844-0.89062 0.8125-0.32422 0.16406-0.71875 0.25-1.1875 0.25-0.63672 0-1.1523-0.17969-1.5469-0.54688-0.39844-0.375-0.59375-0.85938-0.59375-1.4531 0-0.71875 0.24219-1.2422 0.73438-1.5781 0.5-0.33203 1.2734-0.5 2.3281-0.5h1.1562v-0.15625c0-0.3125-0.125-0.53516-0.375-0.67188-0.24219-0.14453-0.62109-0.21875-1.1406-0.21875-0.41797 0-0.80859 0.042969-1.1719 0.125-0.35547 0.085938-0.6875 0.21094-1 0.375v-1.5c0.41406-0.09375 0.83594-0.16406 1.2656-0.21875 0.42578-0.0625 0.84766-0.09375 1.2656-0.09375 1.1016 0 1.8984 0.21875 2.3906 0.65625 0.48828 0.4375 0.73438 1.1484 0.73438 2.125z"/>
  </symbol>
  <symbol id="a" overflow="visible">
   <path d="m3.0781-7.8594v1.7344h2.0156v1.4062h-2.0156v2.5938c0 0.28125 0.054687 0.47656 0.17188 0.57812 0.11328 0.09375 0.33594 0.14062 0.67188 0.14062h1v1.4062h-1.6719c-0.77344 0-1.3203-0.16016-1.6406-0.48438-0.32422-0.32031-0.48438-0.86719-0.48438-1.6406v-2.5938h-0.98438v-1.4062h0.98438v-1.7344z"/>
  </symbol>
  <symbol id="k" overflow="visible">
   <path d="m5.1094-5.2344v-3.2812h1.9688v8.5156h-1.9688v-0.89062c-0.27344 0.36719-0.57031 0.63281-0.89062 0.79688-0.32422 0.16406-0.69922 0.25-1.125 0.25-0.76172 0-1.3867-0.29688-1.875-0.89062-0.48047-0.60156-0.71875-1.3789-0.71875-2.3281 0-0.9375 0.23828-1.707 0.71875-2.3125 0.48828-0.60156 1.1133-0.90625 1.875-0.90625 0.41406 0 0.78516 0.089844 1.1094 0.26562 0.33203 0.16797 0.63281 0.42969 0.90625 0.78125zm-1.2969 3.9688c0.42578 0 0.75-0.14844 0.96875-0.45312 0.21875-0.3125 0.32812-0.75781 0.32812-1.3438 0-0.58203-0.10938-1.0234-0.32812-1.3281-0.21875-0.3125-0.54297-0.46875-0.96875-0.46875-0.41797 0-0.73438 0.15625-0.95312 0.46875-0.21875 0.30469-0.32812 0.74609-0.32812 1.3281 0 0.58594 0.10938 1.0312 0.32812 1.3438 0.21875 0.30469 0.53516 0.45312 0.95312 0.45312z"/>
  </symbol>
  <symbol id="j" overflow="visible">
   <path d="m4.2031-1.2656c0.41406 0 0.73438-0.14844 0.95312-0.45312 0.21875-0.3125 0.32812-0.75781 0.32812-1.3438 0-0.58203-0.10938-1.0234-0.32812-1.3281-0.21875-0.3125-0.53906-0.46875-0.95312-0.46875-0.41797 0-0.74219 0.15625-0.96875 0.46875-0.21875 0.3125-0.32812 0.75781-0.32812 1.3281 0 0.58594 0.10938 1.0312 0.32812 1.3438 0.22656 0.30469 0.55078 0.45312 0.96875 0.45312zm-1.2969-3.9688c0.25781-0.35156 0.55078-0.61328 0.875-0.78125 0.33203-0.17578 0.71094-0.26562 1.1406-0.26562 0.75781 0 1.3789 0.30469 1.8594 0.90625 0.48828 0.60547 0.73438 1.375 0.73438 2.3125 0 0.94922-0.24609 1.7266-0.73438 2.3281-0.48047 0.59375-1.1016 0.89062-1.8594 0.89062-0.42969 0-0.80859-0.085938-1.1406-0.25-0.32422-0.16406-0.61719-0.42969-0.875-0.79688v0.89062h-1.9688v-8.5156h1.9688z"/>
  </symbol>
  <symbol id="g" overflow="visible">
   <path d="m0.14062-6.125h1.9531l1.6406 4.1562 1.4062-4.1562h1.9531l-2.5625 6.7031c-0.26172 0.6875-0.5625 1.1641-0.90625 1.4375-0.34375 0.26953-0.80469 0.40625-1.375 0.40625h-1.125v-1.2969h0.60938c0.33203 0 0.57031-0.054688 0.71875-0.15625 0.15625-0.10547 0.27344-0.29297 0.35938-0.5625l0.046875-0.17188z"/>
  </symbol>
  <symbol id="i" overflow="visible">
   <path d="m1.0312-8.1719h2.6719l1.8594 4.375 1.875-4.375h2.6719v8.1719h-1.9844v-5.9688l-1.8906 4.4062h-1.3281l-1.875-4.4062v5.9688h-2z"/>
  </symbol>
  <symbol id="f" overflow="visible">
   <path d="m0.875-2.3906v-3.7344h1.9688v0.60938c0 0.33594-0.007812 0.75-0.015625 1.25v1c0 0.5 0.007813 0.85938 0.03125 1.0781 0.03125 0.21094 0.078125 0.36719 0.14062 0.46875 0.082031 0.125 0.1875 0.22656 0.3125 0.29688 0.13281 0.0625 0.28516 0.09375 0.45312 0.09375 0.40625 0 0.72266-0.15625 0.95312-0.46875 0.23828-0.3125 0.35938-0.75 0.35938-1.3125v-3.0156h1.9531v6.125h-1.9531v-0.89062c-0.29297 0.36719-0.60547 0.63281-0.9375 0.79688-0.33594 0.16406-0.69922 0.25-1.0938 0.25-0.71094 0-1.25-0.21094-1.625-0.64062-0.36719-0.4375-0.54688-1.0703-0.54688-1.9062z"/>
  </symbol>
  <symbol id="t" overflow="visible">
   <path d="m5.7344-5.9375v1.4844c-0.42969-0.16406-0.83984-0.28906-1.2344-0.375-0.38672-0.09375-0.75-0.14062-1.0938-0.14062-0.375 0-0.65234 0.046875-0.82812 0.14062-0.17969 0.09375-0.26562 0.23438-0.26562 0.42188 0 0.15625 0.066406 0.27734 0.20312 0.35938 0.13281 0.085937 0.37891 0.14844 0.73438 0.1875l0.34375 0.046875c1 0.13672 1.6719 0.35156 2.0156 0.64062 0.35156 0.29297 0.53125 0.74609 0.53125 1.3594 0 0.65625-0.24609 1.1523-0.73438 1.4844-0.48047 0.32422-1.1953 0.48438-2.1406 0.48438-0.40625 0-0.82812-0.03125-1.2656-0.09375-0.42969-0.0625-0.87109-0.15625-1.3281-0.28125v-1.5c0.39453 0.19922 0.79688 0.34375 1.2031 0.4375s0.82031 0.14062 1.25 0.14062c0.38281 0 0.67188-0.050781 0.85938-0.15625 0.19531-0.10156 0.29688-0.25781 0.29688-0.46875 0-0.17578-0.070312-0.30469-0.20312-0.39062-0.13672-0.09375-0.40234-0.16016-0.79688-0.20312l-0.34375-0.046875c-0.875-0.11328-1.4922-0.31641-1.8438-0.60938-0.34375-0.28906-0.51562-0.73828-0.51562-1.3438 0-0.64453 0.22266-1.125 0.67188-1.4375 0.44531-0.32031 1.1289-0.48438 2.0469-0.48438 0.35156 0 0.72656 0.03125 1.125 0.09375 0.40625 0.054688 0.84375 0.13672 1.3125 0.25z"/>
  </symbol>
  <symbol id="c" overflow="visible">
   <path d="m3.8594-4.875c-0.4375 0-0.77344 0.15625-1 0.46875-0.23047 0.3125-0.34375 0.76172-0.34375 1.3438 0 0.59375 0.11328 1.0469 0.34375 1.3594 0.22656 0.3125 0.5625 0.46875 1 0.46875 0.42578 0 0.75-0.15625 0.96875-0.46875 0.22656-0.3125 0.34375-0.76562 0.34375-1.3594 0-0.58203-0.11719-1.0312-0.34375-1.3438-0.21875-0.3125-0.54297-0.46875-0.96875-0.46875zm0-1.4062c1.0508 0 1.875 0.28906 2.4688 0.85938 0.59375 0.57422 0.89062 1.3594 0.89062 2.3594 0 1.0117-0.29688 1.8047-0.89062 2.375-0.59375 0.5625-1.418 0.84375-2.4688 0.84375-1.0625 0-1.8906-0.28125-2.4844-0.84375-0.59375-0.57031-0.89062-1.3633-0.89062-2.375 0-1 0.29688-1.7852 0.89062-2.3594 0.59375-0.57031 1.4219-0.85938 2.4844-0.85938z"/>
  </symbol>
  <symbol id="h" overflow="visible">
   <path d="m4.9688-8.5156v1.2969h-1.0781c-0.28125 0-0.48047 0.054688-0.59375 0.15625-0.10547 0.09375-0.15625 0.26562-0.15625 0.51562v0.42188h1.6719v1.4062h-1.6719v4.7188h-1.9531v-4.7188h-0.96875v-1.4062h0.96875v-0.42188c0-0.66406 0.17969-1.1602 0.54688-1.4844 0.375-0.32031 0.95312-0.48438 1.7344-0.48438z"/>
  </symbol>
  <symbol id="s" overflow="visible">
   <path d="m4.2969-5c0.33203 0 0.58203-0.070312 0.75-0.21875 0.17578-0.14453 0.26562-0.36328 0.26562-0.65625 0-0.28125-0.089844-0.49219-0.26562-0.64062-0.16797-0.14453-0.41797-0.21875-0.75-0.21875h-1.1562v1.7344zm0.078125 3.5625c0.41406 0 0.72656-0.085938 0.9375-0.26562 0.21875-0.17578 0.32812-0.44531 0.32812-0.8125 0-0.35156-0.10547-0.61719-0.3125-0.79688-0.21094-0.17578-0.52734-0.26562-0.95312-0.26562h-1.2344v2.1406zm1.9531-2.9375c0.44531 0.13672 0.79688 0.38281 1.0469 0.73438 0.25 0.35547 0.375 0.78906 0.375 1.2969 0 0.79297-0.26562 1.3828-0.79688 1.7656-0.53125 0.38672-1.3398 0.57812-2.4219 0.57812h-3.5v-8.1719h3.1562c1.1328 0 1.957 0.17188 2.4688 0.51562 0.50781 0.34375 0.76562 0.89844 0.76562 1.6562 0 0.39844-0.09375 0.73438-0.28125 1.0156-0.1875 0.27344-0.46094 0.47656-0.8125 0.60938z"/>
  </symbol>
  <symbol id="r" overflow="visible">
   <path d="m6.625-5.1094c0.23828-0.375 0.53125-0.66016 0.875-0.85938 0.34375-0.20703 0.71875-0.3125 1.125-0.3125 0.70703 0 1.2422 0.21875 1.6094 0.65625 0.36328 0.4375 0.54688 1.0703 0.54688 1.8906v3.7344h-1.9688v-3.1875c0.007812-0.050781 0.015625-0.10156 0.015625-0.15625v-0.21875c0-0.4375-0.0625-0.75-0.1875-0.9375-0.125-0.19531-0.33594-0.29688-0.625-0.29688-0.36719 0-0.65234 0.15625-0.85938 0.46875-0.19922 0.30469-0.30469 0.74219-0.3125 1.3125v3.0156h-1.9688v-3.1875c0-0.6875-0.058594-1.125-0.17188-1.3125-0.11719-0.19531-0.32422-0.29688-0.625-0.29688-0.375 0-0.66797 0.15625-0.875 0.46875-0.19922 0.30469-0.29688 0.74219-0.29688 1.3125v3.0156h-1.9688v-6.125h1.9688v0.89062c0.23828-0.34375 0.51562-0.60156 0.82812-0.78125 0.3125-0.17578 0.65625-0.26562 1.0312-0.26562 0.41406 0 0.78516 0.10547 1.1094 0.3125 0.33203 0.21094 0.58203 0.49609 0.75 0.85938z"/>
  </symbol>
  <symbol id="q" overflow="visible">
   <path d="m7.0938-3.7344v3.7344h-1.9688v-2.8438c0-0.53906-0.011719-0.91016-0.03125-1.1094-0.023438-0.19531-0.0625-0.34375-0.125-0.4375-0.074219-0.125-0.17969-0.22266-0.3125-0.29688-0.125-0.070312-0.27344-0.10938-0.4375-0.10938-0.41797 0-0.74219 0.16406-0.96875 0.48438-0.23047 0.3125-0.34375 0.74609-0.34375 1.2969v3.0156h-1.9688v-8.5156h1.9688v3.2812c0.28906-0.35156 0.60156-0.61328 0.9375-0.78125 0.33203-0.17578 0.69531-0.26562 1.0938-0.26562 0.70703 0 1.2422 0.21875 1.6094 0.65625 0.36328 0.4375 0.54688 1.0703 0.54688 1.8906z"/>
  </symbol>
  <symbol id="p" overflow="visible">
   <path d="m1.0312-8.1719h2.3438l2.9688 5.6094v-5.6094h2v8.1719h-2.3438l-2.9688-5.6094v5.6094h-2z"/>
  </symbol>
  <symbol id="o" overflow="visible">
   <path d="m7.0938-3.7344v3.7344h-1.9688v-2.8594c0-0.53125-0.011719-0.89453-0.03125-1.0938-0.023438-0.19531-0.0625-0.34375-0.125-0.4375-0.074219-0.125-0.17969-0.22266-0.3125-0.29688-0.125-0.070312-0.27344-0.10938-0.4375-0.10938-0.41797 0-0.74219 0.16406-0.96875 0.48438-0.23047 0.3125-0.34375 0.74609-0.34375 1.2969v3.0156h-1.9688v-6.125h1.9688v0.89062c0.28906-0.35156 0.60156-0.61328 0.9375-0.78125 0.33203-0.17578 0.69531-0.26562 1.0938-0.26562 0.70703 0 1.2422 0.21875 1.6094 0.65625 0.36328 0.4375 0.54688 1.0703 0.54688 1.8906z"/>
  </symbol>
  <symbol id="n" overflow="visible">
   <path d="m1.0312-8.1719h3.5c1.0312 0 1.8203 0.23438 2.375 0.70312 0.5625 0.46094 0.84375 1.1172 0.84375 1.9688 0 0.85547-0.28125 1.5156-0.84375 1.9844-0.55469 0.46094-1.3438 0.6875-2.375 0.6875h-1.3906v2.8281h-2.1094zm2.1094 1.5312v2.2812h1.1562c0.40625 0 0.71875-0.097656 0.9375-0.29688 0.22656-0.19531 0.34375-0.47656 0.34375-0.84375 0-0.36328-0.11719-0.64453-0.34375-0.84375-0.21875-0.19531-0.53125-0.29688-0.9375-0.29688z"/>
  </symbol>
  <symbol id="m" overflow="visible">
   <path d="m0.9375-6.125h1.9688v6.0156c0 0.82031-0.19922 1.4453-0.59375 1.875-0.39844 0.4375-0.96875 0.65625-1.7188 0.65625h-0.96875v-1.2969h0.34375c0.375 0 0.62891-0.085938 0.76562-0.25 0.13281-0.16797 0.20312-0.49609 0.20312-0.98438zm0-2.3906h1.9688v1.5938h-1.9688z"/>
  </symbol>
  <symbol id="l" overflow="visible">
   <path d="m5.8906-5.9375v1.5938c-0.27344-0.17578-0.54297-0.30469-0.8125-0.39062-0.26172-0.09375-0.53906-0.14062-0.82812-0.14062-0.54297 0-0.96875 0.16406-1.2812 0.48438-0.30469 0.3125-0.45312 0.75781-0.45312 1.3281 0 0.57422 0.14844 1.0234 0.45312 1.3438 0.3125 0.32422 0.73828 0.48438 1.2812 0.48438 0.3125 0 0.60156-0.046875 0.875-0.14062 0.28125-0.09375 0.53516-0.22656 0.76562-0.40625v1.5938c-0.30469 0.11719-0.61719 0.19531-0.9375 0.25-0.3125 0.0625-0.625 0.09375-0.9375 0.09375-1.1055 0-1.9688-0.28125-2.5938-0.84375-0.625-0.57031-0.9375-1.3633-0.9375-2.375 0-1.0078 0.3125-1.7969 0.9375-2.3594 0.625-0.57031 1.4883-0.85938 2.5938-0.85938 0.3125 0 0.625 0.03125 0.9375 0.09375 0.3125 0.054688 0.625 0.13672 0.9375 0.25z"/>
  </symbol>
 </defs>
 <g>
  <path d="m170.8 542.08h358.4c6.0234-0.003906 11.797-2.3984 16.055-6.6562 4.2578-4.2578 6.6523-10.035 6.6602-16.055v-478.73c-0.007812-6.0195-2.4023-11.797-6.6602-16.055-4.2578-4.2578-10.031-6.6523-16.055-6.6562h-358.4c-6.0156 0.015625-11.777 2.418-16.027 6.6719-4.2461 4.2578-6.6367 10.027-6.6406 16.039v478.73c0.003907 6.0117 2.3945 11.781 6.6406 16.039 4.25 4.2539 10.012 6.6562 16.027 6.6719zm0-519.68h358.4c4.832 0.007812 9.4609 1.9258 12.879 5.3398 3.418 3.4141 5.3438 8.043 5.3555 12.871v47.625h-394.82v-47.602c0.007813-4.8242 1.9258-9.4531 5.332-12.871 3.4102-3.4141 8.0312-5.3438 12.859-5.3633zm-18.191 70.316h394.78v382.68h-394.78zm0 387.16h394.78v39.492c-0.007813 4.8242-1.9258 9.4531-5.332 12.871-3.4102 3.4141-8.0312 5.3438-12.859 5.3633h-358.4c-4.8359-0.007812-9.4688-1.9297-12.887-5.3477-3.418-3.418-5.3398-8.0547-5.3477-12.887z"/>
  <path d="m368.57 69.059c5.0117 0.007812 9.5391-3.0039 11.461-7.6367 1.9219-4.6289 0.86719-9.9648-2.6797-13.508-3.5469-3.5469-8.8789-4.6055-13.512-2.6836-4.6289 1.9258-7.6445 6.4492-7.6367 11.465 0.015625 6.8242 5.543 12.352 12.367 12.363zm0-20.16c3.1992-0.007813 6.0898 1.9141 7.3203 4.8672s0.55859 6.3594-1.6992 8.625c-2.2617 2.2656-5.6641 2.9453-8.6211 1.7227-2.957-1.2227-4.8867-4.1055-4.8867-7.3086-0.023438-2.1094 0.79688-4.1406 2.2773-5.6484 1.4805-1.5039 3.4961-2.3555 5.6094-2.3672z"/>
  <path d="m406 69.059c5.0117 0 9.5312-3.0195 11.445-7.6523 1.918-4.6289 0.85156-9.9609-2.6953-13.5-3.5469-3.543-8.8789-4.5977-13.508-2.6719-4.625 1.9258-7.6367 6.4492-7.6289 11.461 0 3.2812 1.3047 6.4297 3.6289 8.75 2.3242 2.3203 5.4727 3.6211 8.7578 3.6133zm0-20.16c3.1992 0 6.082 1.9258 7.3047 4.8828 1.2227 2.9531 0.54687 6.3555-1.7148 8.6172-2.2617 2.2617-5.6602 2.9375-8.6172 1.7148-2.9531-1.2266-4.8789-4.1094-4.8789-7.3086-0.03125-2.1133 0.78906-4.1562 2.2734-5.6602 1.4883-1.5078 3.5156-2.3594 5.6328-2.3555z"/>
  <path d="m331.27 69.059c5.0156 0.007812 9.5391-3.0039 11.461-7.6367 1.9258-4.6289 0.86719-9.9648-2.6797-13.508-3.5469-3.5469-8.8789-4.6055-13.508-2.6836-4.6328 1.9258-7.6484 6.4492-7.6367 11.465 0.011719 6.8242 5.5391 12.352 12.363 12.363zm0-20.16c3.1992-0.007813 6.0898 1.9141 7.3203 4.8672s0.5625 6.3594-1.6992 8.625c-2.2578 2.2656-5.6602 2.9453-8.6211 1.7227-2.957-1.2227-4.8828-4.1055-4.8828-7.3086-0.027344-2.1094 0.79297-4.1406 2.2734-5.6484 1.4805-1.5039 3.5-2.3555 5.6094-2.3672z"/>
  <path d="m294.11 69.059c5.0117 0.007812 9.5391-3.0039 11.461-7.6367 1.9219-4.6289 0.86328-9.9648-2.6797-13.508-3.5469-3.5469-8.8789-4.6055-13.512-2.6836-4.6289 1.9258-7.6445 6.4492-7.6367 11.465 0.011718 6.8242 5.543 12.352 12.367 12.363zm0-20.16c3.1992-0.007813 6.0898 1.9141 7.3203 4.8672 1.2305 2.9531 0.55859 6.3594-1.6992 8.625-2.2617 2.2656-5.6641 2.9453-8.6211 1.7227-2.957-1.2227-4.8867-4.1055-4.8867-7.3086-0.023437-2.1094 0.79688-4.1406 2.2773-5.6484 1.4766-1.5039 3.4961-2.3555 5.6094-2.3672z"/>
  <path d="m173.04 76.562h89.602c3.2422 0 5.8672-2.625 5.8672-5.8672v-28.539c0-1.5547-0.61719-3.0469-1.7188-4.1484-1.1016-1.1016-2.5938-1.7188-4.1484-1.7188h-89.602c-3.2344 0.011719-5.8555 2.6328-5.8672 5.8672v28.539c0.011719 3.2344 2.6328 5.8555 5.8672 5.8672zm-1.3906-34.406h0.003906c0-0.76562 0.62109-1.3867 1.3867-1.3867h89.602c0.76562 0 1.3867 0.62109 1.3867 1.3867v28.539c0 0.76563-0.62109 1.3867-1.3867 1.3867h-89.602c-0.76562 0-1.3867-0.62109-1.3867-1.3867z"/>
  <path d="m489.96 133.48h-280c-6.3789 0.011719-11.547 5.1797-11.559 11.559v280c0.011718 6.3789 5.1797 11.547 11.559 11.559h280c6.375-0.011718 11.543-5.1797 11.555-11.559v-280c-0.011719-6.3789-5.1797-11.547-11.555-11.559zm7.0781 291.47c-0.015625 3.9062-3.1758 7.0664-7.0781 7.0781h-280c-3.9062-0.011719-7.0664-3.1719-7.082-7.0781v-280c0.015625-3.9023 3.1758-7.0664 7.082-7.0781h280c3.9023 0.011718 7.0625 3.1758 7.0781 7.0781z"/>
  <path d="m505.77 116.61h-311.54c-6.9648 0-12.609 5.6484-12.609 12.613v311.54c0 6.9648 5.6445 12.609 12.609 12.609h311.54c6.9648 0 12.609-5.6445 12.609-12.609v-311.54c0-6.9648-5.6445-12.613-12.609-12.613zm8.1328 324.15c-0.015625 4.4844-3.6484 8.1172-8.1328 8.1289h-311.54c-4.4844-0.011719-8.1172-3.6445-8.1328-8.1289v-311.54c0.015625-4.4883 3.6484-8.1211 8.1328-8.1328h311.54c4.4844 0.011719 8.1172 3.6445 8.1328 8.1328z"/>
  <path d="m480.05 226.49c-1.2383 0-2.2422 1-2.2422 2.2383v35.84c0 2.8008-2.2617 5.0742-5.0586 5.0859h-245.51c-2.7969-0.011719-5.0586-2.2852-5.0586-5.0859v-35.84c0-1.2383-1.0039-2.2383-2.2422-2.2383-1.2383 0-2.2383 1-2.2383 2.2383v35.84c0 5.2734 4.2656 9.5508 9.5391 9.5664h245.51c5.2734-0.015624 9.5391-4.293 9.5391-9.5664v-35.84c0-0.59375-0.23438-1.1641-0.65625-1.5859-0.41797-0.41797-0.98828-0.65234-1.582-0.65234z"/>
  <path d="m480.05 365.77c-1.2383 0-2.2422 1.0039-2.2422 2.2383v35.84c0 2.8008-2.2617 5.0742-5.0586 5.0859h-245.51c-2.7969-0.011719-5.0586-2.2852-5.0586-5.0859v-35.84c0-1.2344-1.0039-2.2383-2.2422-2.2383-1.2383 0-2.2383 1.0039-2.2383 2.2383v35.84c0 5.2773 4.2656 9.5547 9.5391 9.5664h245.51c5.2734-0.011718 9.5391-4.2891 9.5391-9.5664v-35.84c0-0.59375-0.23438-1.1602-0.65625-1.582-0.41797-0.42188-0.98828-0.65625-1.582-0.65625z"/>
  <path d="m334.32 343.5c-0.023437-10.453-4.1953-20.469-11.598-27.848s-17.434-11.52-27.887-11.508c-10.453 0.007812-20.473 4.168-27.863 11.559-7.3906 7.3945-11.543 17.418-11.547 27.871-0.003906 10.453 4.1406 20.48 11.527 27.879 7.3828 7.3984 17.402 11.566 27.852 11.582 10.488 0.011719 20.551-4.1484 27.965-11.566 7.4102-7.418 11.566-17.48 11.551-27.969zm-74.414 0c0.023438-9.2734 3.7305-18.156 10.305-24.695 6.5703-6.5391 15.473-10.203 24.746-10.18 9.2695 0.019532 18.156 3.7227 24.695 10.297 6.543 6.5703 10.207 15.469 10.188 24.742-0.019532 9.2734-3.7227 18.156-10.293 24.699-6.5703 6.543-15.469 10.211-24.742 10.191-9.2852-0.003906-18.191-3.7031-24.75-10.277-6.5586-6.5781-10.234-15.488-10.215-24.777z"/>
  <path d="m356.07 343.5c0-16.25-6.4531-31.832-17.945-43.32-11.488-11.488-27.07-17.945-43.32-17.945-16.246 0-31.828 6.457-43.32 17.945-11.488 11.488-17.941 27.07-17.941 43.32s6.4531 31.832 17.941 43.32c11.492 11.488 27.074 17.945 43.32 17.945 16.246-0.011719 31.82-6.4727 43.309-17.957 11.488-11.488 17.945-27.062 17.957-43.309zm-118.05 0c0-15.059 5.9805-29.504 16.629-40.152 10.652-10.648 25.094-16.633 40.152-16.633 15.062 0 29.504 5.9844 40.152 16.633 10.652 10.648 16.633 25.094 16.633 40.152s-5.9805 29.504-16.633 40.152c-10.648 10.648-25.09 16.633-40.152 16.633-15.059-0.007812-29.5-5.9922-40.152-16.637-10.652-10.648-16.641-25.09-16.652-40.148z"/>
  <path d="m450.98 324.62v-38.238c-0.011719-3.2852-2.6758-5.9453-5.9609-5.957h-44.039c-3.2852 0.011719-5.9453 2.6719-5.957 5.957v38.238c0.035156 6.0977 2.0547 12.02 5.7539 16.867 3.6953 4.8516 8.8711 8.3633 14.742 10.012v31.941c-3.9609 1.1992-7.4453 3.6094-9.9648 6.8945-2.5195 3.2812-3.9453 7.2734-4.0781 11.406-0.023437 0.76953 0.26953 1.5117 0.80469 2.0625 0.53125 0.55859 1.2695 0.875 2.0391 0.875h37.363c0.76953-0.007813 1.5-0.32031 2.0352-0.87109 0.53516-0.55469 0.82812-1.2969 0.80859-2.0664-0.13281-4.1328-1.5586-8.125-4.0781-11.406-2.5195-3.2852-6.0039-5.6953-9.9648-6.8945v-31.762c5.8984-1.6562 11.098-5.1992 14.797-10.082 3.6992-4.8867 5.7031-10.848 5.6992-16.977zm-23.184 62.898c3.0898 0.63281 5.9141 2.207 8.0781 4.5039 2.1641 2.2969 3.5664 5.207 4.0156 8.332h-33.777c0.44531-3.125 1.8477-6.0352 4.0156-8.332 2.1641-2.2969 4.9844-3.8711 8.0781-4.5039l1.793-0.35938v-39.152l-1.793-0.37891v-0.003906c-5.2812-1.1133-10.02-4.0039-13.422-8.1914-3.4062-4.1875-5.2695-9.418-5.2812-14.812v-38.238c0.011719-0.80859 0.66797-1.4648 1.4766-1.4766h44.039c0.8125 0.011719 1.4688 0.66797 1.4805 1.4766v38.238c-0.011719 5.3945-1.8789 10.625-5.2812 14.812-3.4062 4.1875-8.1445 7.0781-13.422 8.1914l-1.793 0.37891v39.09z"/>
  <path d="m407.81 265.26c15.609-0.019531 30.57-6.2266 41.609-17.262 11.035-11.035 17.242-26 17.258-41.605v-1.2539c0.003906-1.832-0.73047-3.5859-2.0312-4.8711-1.2969-1.2891-3.0586-2.0039-4.8867-1.9844h-103.98c-3.7852 0-6.8516 3.0703-6.8516 6.8555v1.2539c0.015625 15.609 6.2266 30.578 17.27 41.613 11.039 11.035 26.008 17.242 41.617 17.254zm-54.406-60.121c0-1.3125 1.0625-2.375 2.3711-2.375h103.98c0.62891-0.007813 1.2383 0.24219 1.6836 0.6875 0.44531 0.44531 0.69531 1.0547 0.6875 1.6875v1.2539c-0.011718 14.418-5.7461 28.246-15.941 38.445-10.195 10.195-24.023 15.93-38.445 15.941-14.422-0.011719-28.25-5.7461-38.453-15.941-10.199-10.195-15.938-24.023-15.957-38.445z"/>
  <path d="m254.89 250.61h7.3477c1.8086 4.3438 4.8633 8.0508 8.7773 10.66 3.9141 2.6055 8.5156 3.9961 13.219 3.9922h13.441-0.003906c6.3164-0.007813 12.367-2.5156 16.832-6.9805s6.9766-10.52 6.9805-16.832v-46.367c0.007813-1.4844-0.57812-2.9141-1.625-3.9688-1.0469-1.0508-2.4688-1.6484-3.9531-1.6523h-49.906c-3.0977 0.011718-5.6016 2.5234-5.6016 5.6211v8.2227l-5.5078-0.003907c-5.5391 0.015625-10.023 4.5-10.035 10.035v27.238c0.011719 5.5391 4.4961 10.023 10.035 10.035zm9.9883-55.527c0-0.62109 0.5-1.1289 1.1211-1.1445h49.93c0.29687 0.007812 0.57812 0.13281 0.78516 0.34375 0.20703 0.21484 0.31641 0.50391 0.3125 0.80078v46.367c-0.007813 5.125-2.043 10.039-5.668 13.664-3.625 3.6211-8.5391 5.6602-13.664 5.668h-13.441 0.003906c-4.0469 0.003906-7.9922-1.2617-11.285-3.6133-3.2891-2.3555-5.7617-5.6836-7.0625-9.5117-0.66016-2.0039-1-4.0977-1.0078-6.207v-46.367zm-15.547 18.258 0.003907-0.003906c0-3.0664 2.4844-5.5547 5.5547-5.5547h5.5078v33.602 2.2383 0.69531c0 0.24609 0.13281 0.98438 0.22266 1.4766l0.003906 0.003906c-0.011719 0.10938-0.011719 0.22266 0 0.33594h-5.7344c-3.0703 0-5.5547-2.4883-5.5547-5.5586z"/>
 </g>
</svg>
