<?xml version="1.0" encoding="UTF-8"?>
<svg width="700pt" height="700pt" version="1.1" viewBox="0 0 700 700" xmlns="http://www.w3.org/2000/svg" xmlns:xlink="http://www.w3.org/1999/xlink">
 <defs>
  <symbol id="e" overflow="visible">
   <path d="m29.312-1.75c-1.5117 0.78125-3.0898 1.3711-4.7344 1.7656-1.6367 0.40625-3.3398 0.60938-5.1094 0.60938-5.3125 0-9.5273-1.4844-12.641-4.4531-3.1055-2.9688-4.6562-7-4.6562-12.094s1.5508-9.125 4.6562-12.094c3.1133-2.9688 7.3281-4.4531 12.641-4.4531 1.7695 0 3.4727 0.19922 5.1094 0.59375 1.6445 0.39844 3.2227 0.99219 4.7344 1.7812v6.5938c-1.5312-1.0391-3.0391-1.8008-4.5156-2.2812-1.4805-0.48828-3.0391-0.73438-4.6719-0.73438-2.9375 0-5.2461 0.94531-6.9219 2.8281-1.6797 1.875-2.5156 4.4648-2.5156 7.7656 0 3.293 0.83594 5.8828 2.5156 7.7656 1.6758 1.875 3.9844 2.8125 6.9219 2.8125 1.6328 0 3.1914-0.23828 4.6719-0.71875 1.4766-0.48828 2.9844-1.2539 4.5156-2.2969z"/>
  </symbol>
  <symbol id="j" overflow="visible">
   <path d="m21.453-17.406c-0.67969-0.3125-1.3516-0.53906-2.0156-0.6875-0.65625-0.15625-1.3203-0.23438-1.9844-0.23438-1.9688 0-3.4844 0.63281-4.5469 1.8906-1.0547 1.2617-1.5781 3.0703-1.5781 5.4219v11.016h-7.6562v-23.922h7.6562v3.9219c0.97656-1.5625 2.1016-2.7031 3.375-3.4219 1.2812-0.71875 2.8125-1.0781 4.5938-1.0781 0.25 0 0.52344 0.011719 0.82812 0.03125 0.30078 0.023438 0.73438 0.070312 1.2969 0.14062z"/>
  </symbol>
  <symbol id="b" overflow="visible">
   <path d="m27.562-12.031v2.1875h-17.891c0.1875 1.793 0.83203 3.1367 1.9375 4.0312 1.1133 0.89844 2.6719 1.3438 4.6719 1.3438 1.6016 0 3.25-0.23438 4.9375-0.70312 1.6875-0.47656 3.4219-1.2031 5.2031-2.1719v5.8906c-1.8047 0.6875-3.6094 1.2031-5.4219 1.5469-1.8125 0.35156-3.6211 0.53125-5.4219 0.53125-4.3359 0-7.7031-1.0977-10.109-3.2969-2.3984-2.207-3.5938-5.2969-3.5938-9.2656 0-3.9062 1.1758-6.9727 3.5312-9.2031 2.3633-2.2383 5.6094-3.3594 9.7344-3.3594 3.7578 0 6.7695 1.1367 9.0312 3.4062 2.2578 2.2617 3.3906 5.2812 3.3906 9.0625zm-7.8594-2.5312c0-1.457-0.42969-2.6289-1.2812-3.5156-0.84375-0.89453-1.9492-1.3438-3.3125-1.3438-1.4922 0-2.6992 0.41797-3.625 1.25-0.91797 0.83594-1.4922 2.0391-1.7188 3.6094z"/>
  </symbol>
  <symbol id="a" overflow="visible">
   <path d="m14.391-10.766c-1.5938 0-2.793 0.27344-3.5938 0.8125-0.80469 0.54297-1.2031 1.3398-1.2031 2.3906 0 0.96875 0.32031 1.7305 0.96875 2.2812 0.64453 0.54297 1.5469 0.8125 2.7031 0.8125 1.4375 0 2.6445-0.51562 3.625-1.5469 0.98828-1.0312 1.4844-2.3203 1.4844-3.875v-0.875zm11.688-2.8906v13.656h-7.7031v-3.5469c-1.0312 1.4492-2.1875 2.5078-3.4688 3.1719s-2.8398 1-4.6719 1c-2.4805 0-4.4961-0.72266-6.0469-2.1719-1.543-1.4453-2.3125-3.3203-2.3125-5.625 0-2.8125 0.96094-4.8672 2.8906-6.1719 1.9375-1.3125 4.9688-1.9688 9.0938-1.9688h4.5156v-0.60938c0-1.207-0.48047-2.0938-1.4375-2.6562-0.94922-0.5625-2.4375-0.84375-4.4688-0.84375-1.6367 0-3.1562 0.16797-4.5625 0.5-1.4062 0.32422-2.7188 0.8125-3.9375 1.4688v-5.8281c1.6445-0.40625 3.2891-0.70703 4.9375-0.90625 1.6562-0.20703 3.3047-0.3125 4.9531-0.3125 4.3203 0 7.4375 0.85547 9.3438 2.5625 1.9141 1.6992 2.875 4.4609 2.875 8.2812z"/>
  </symbol>
  <symbol id="i" overflow="visible">
   <path d="m12.031-30.719v6.7969h7.875v5.4688h-7.875v10.141c0 1.1172 0.21875 1.8711 0.65625 2.2656 0.4375 0.38672 1.3125 0.57812 2.625 0.57812h3.9375v5.4688h-6.5625c-3.0234 0-5.1641-0.62891-6.4219-1.8906-1.2617-1.2578-1.8906-3.3984-1.8906-6.4219v-10.141h-3.7969v-5.4688h3.7969v-6.7969z"/>
  </symbol>
  <symbol id="c" overflow="visible">
   <path d="m19.953-20.422v-12.812h7.6875v33.234h-7.6875v-3.4531c-1.0547 1.4062-2.2148 2.4375-3.4844 3.0938-1.2734 0.65625-2.7422 0.98438-4.4062 0.98438-2.9492 0-5.3711-1.1719-7.2656-3.5156-1.8867-2.3438-2.8281-5.3594-2.8281-9.0469s0.94141-6.7031 2.8281-9.0469c1.8945-2.3438 4.3164-3.5156 7.2656-3.5156 1.6562 0 3.1172 0.33594 4.3906 1 1.2812 0.65625 2.4453 1.6836 3.5 3.0781zm-5.0469 15.484c1.6445 0 2.8945-0.59766 3.75-1.7969 0.86328-1.1953 1.2969-2.9297 1.2969-5.2031 0-2.2812-0.43359-4.0195-1.2969-5.2188-0.85547-1.1953-2.1055-1.7969-3.75-1.7969-1.625 0-2.8711 0.60156-3.7344 1.7969-0.85547 1.1992-1.2812 2.9375-1.2812 5.2188 0 2.2734 0.42578 4.0078 1.2812 5.2031 0.86328 1.1992 2.1094 1.7969 3.7344 1.7969z"/>
  </symbol>
  <symbol id="h" overflow="visible">
   <path d="m16.406-4.9375c1.6328 0 2.8828-0.59766 3.75-1.7969 0.86328-1.1953 1.2969-2.9297 1.2969-5.2031 0-2.2812-0.43359-4.0195-1.2969-5.2188-0.86719-1.1953-2.1172-1.7969-3.75-1.7969-1.6367 0-2.8906 0.60547-3.7656 1.8125-0.875 1.1992-1.3125 2.9336-1.3125 5.2031 0 2.2617 0.4375 3.9961 1.3125 5.2031 0.875 1.1992 2.1289 1.7969 3.7656 1.7969zm-5.0781-15.484c1.0508-1.3945 2.2188-2.4219 3.5-3.0781 1.2812-0.66406 2.7539-1 4.4219-1 2.9453 0 5.3672 1.1719 7.2656 3.5156 1.8945 2.3438 2.8438 5.3594 2.8438 9.0469s-0.94922 6.7031-2.8438 9.0469c-1.8984 2.3438-4.3203 3.5156-7.2656 3.5156-1.668 0-3.1406-0.33594-4.4219-1s-2.4492-1.6914-3.5-3.0781v3.4531h-7.6562v-33.234h7.6562z"/>
  </symbol>
  <symbol id="g" overflow="visible">
   <path d="m0.53125-23.922h7.6562l6.4219 16.234 5.4688-16.234h7.6562l-10.062 26.188c-1.0117 2.6641-2.1953 4.5234-3.5469 5.5781-1.3438 1.0625-3.1211 1.5938-5.3281 1.5938h-4.4219v-5.0156h2.3906c1.3008 0 2.2422-0.21094 2.8281-0.625 0.59375-0.40625 1.0547-1.1484 1.3906-2.2188l0.20312-0.65625z"/>
  </symbol>
  <symbol id="f" overflow="visible">
   <path d="m4.0156-31.891h8.2188v25.672h14.453v6.2188h-22.672z"/>
  </symbol>
  <symbol id="d" overflow="visible">
   <path d="m3.6719-33.234h7.6562v33.234h-7.6562z"/>
  </symbol>
  <symbol id="k" overflow="visible">
   <path d="m26.219-30.891v6.75c-1.7617-0.78125-3.4766-1.3672-5.1406-1.7656-1.668-0.40625-3.2422-0.60938-4.7188-0.60938-1.9609 0-3.4141 0.27344-4.3594 0.8125-0.9375 0.54297-1.4062 1.3867-1.4062 2.5312 0 0.85547 0.31641 1.5234 0.95312 2 0.63281 0.46875 1.7852 0.875 3.4531 1.2188l3.5 0.70312c3.5391 0.71875 6.0625 1.8047 7.5625 3.25 1.5 1.4492 2.25 3.5117 2.25 6.1875 0 3.5234-1.0469 6.1406-3.1406 7.8594-2.0859 1.7188-5.2734 2.5781-9.5625 2.5781-2.0234 0-4.0547-0.19531-6.0938-0.57812-2.0312-0.38281-4.0625-0.95703-6.0938-1.7188v-6.9375c2.0312 1.0859 3.9922 1.9023 5.8906 2.4531 1.9062 0.54297 3.7422 0.8125 5.5156 0.8125 1.7891 0 3.1602-0.29688 4.1094-0.89062 0.95703-0.60156 1.4375-1.457 1.4375-2.5625 0-1-0.32422-1.7695-0.96875-2.3125-0.64844-0.53906-1.9375-1.0234-3.875-1.4531l-3.1875-0.70312c-3.1875-0.6875-5.5234-1.7734-7-3.2656-1.4688-1.5-2.2031-3.5156-2.2031-6.0469 0-3.1758 1.0234-5.6172 3.0781-7.3281 2.0508-1.707 5-2.5625 8.8438-2.5625 1.75 0 3.5508 0.13281 5.4062 0.39062 1.8516 0.26172 3.7695 0.65625 5.75 1.1875z"/>
  </symbol>
 </defs>
 <g>
  <path d="m292.43 449.23h183.41v-17.938c0-4.8984-2.0117-9.3633-5.1641-12.602-3.3242-3.2383-7.7891-5.25-12.688-5.25h-147.7c-4.8984 0-9.3633 2.0117-12.602 5.25-3.2383 3.2383-5.25 7.6992-5.25 12.602v17.938zm102.55-360.06h-21.613v274.84h21.613zm-21.613-17.5h21.613v-17.148c0-2.8867-1.2266-5.6016-3.2383-7.6133-1.9258-1.9258-4.6367-3.1484-7.6133-3.1484s-5.6875 1.2266-7.6133 3.1484c-1.9258 2.0117-3.1484 4.7266-3.1484 7.6133zm-184.27 300.04c6.9141 0 13.211 2.8008 17.762 7.3516 4.5508 4.5508 7.3516 10.852 7.3516 17.852 0 6.9141-2.8008 13.211-7.3516 17.762-4.5508 4.5508-10.852 7.3516-17.762 7.3516-7 0-13.301-2.8008-17.852-7.3516s-7.3516-10.852-7.3516-17.762c0-7 2.8008-13.301 7.3516-17.852 4.5508-4.5508 10.852-7.3516 17.852-7.3516zm5.3359 19.773c-1.3125-1.3984-3.2383-2.2734-5.3359-2.2734-2.1875 0-4.1133 0.875-5.4258 2.2734-1.3984 1.3984-2.2734 3.3242-2.2734 5.4258 0 2.1016 0.875 4.0234 2.2734 5.3359 1.3125 1.3984 3.2383 2.2734 5.4258 2.2734 2.1016 0 4.0234-0.875 5.3359-2.2734 1.3984-1.3125 2.2734-3.2383 2.2734-5.3359 0-2.1016-0.875-4.0234-2.2734-5.4258zm53.727-48.125c8.6641 0 16.449 3.5 22.137 9.1875 5.6875 5.7734 9.1875 13.562 9.1875 22.137 0 8.6641-3.5 16.449-9.1875 22.137-5.6016 5.6875-13.477 9.1875-22.137 9.1875-8.5742 0-16.449-3.5-22.137-9.1875-5.6016-5.6016-9.1875-13.477-9.1875-22.137 0-8.6641 3.5859-16.449 9.1875-22.137 5.6875-5.6016 13.562-9.1875 22.137-9.1875zm9.8008 21.613c-2.4492-2.5391-5.9492-4.1133-9.8008-4.1133-3.7617 0-7.2617 1.5742-9.7109 4.0234-2.5391 2.5391-4.1133 6.0391-4.1133 9.8008 0 3.8516 1.5742 7.2617 4.1133 9.8008 2.4492 2.4492 5.9492 4.0234 9.7109 4.0234 3.8516 0 7.2617-1.5742 9.8008-4.0234 2.5391-2.4492 4.0234-5.9492 4.0234-9.8008 0-3.7617-1.4883-7.2617-4.0234-9.7109zm-22.051 46.023c6.9141 0 13.211 2.8867 17.762 7.4375 4.5508 4.4609 7.3516 10.852 7.3516 17.762 0 6.9141-2.8008 13.211-7.3516 17.762-4.5508 4.5508-10.852 7.3516-17.762 7.3516-7 0-13.301-2.8008-17.852-7.3516-4.4609-4.5508-7.3516-10.852-7.3516-17.762 0-6.9141 2.8867-13.301 7.3516-17.762 4.5508-4.5508 10.852-7.4375 17.852-7.4375zm5.3359 19.773c-1.3125-1.3984-3.2383-2.1875-5.3359-2.1875-2.1016 0-4.0234 0.78906-5.4258 2.1875-1.3984 1.3984-2.2734 3.3242-2.2734 5.4258s0.875 4.0234 2.2734 5.4258c1.3984 1.3125 3.3242 2.1875 5.4258 2.1875 2.1016 0 4.0234-0.875 5.3359-2.1875 1.3984-1.3984 2.2734-3.3242 2.2734-5.4258s-0.875-4.0234-2.2734-5.4258zm252.18 35.961v25.727l17.148 23.801h16.801c4.8125 0 8.75 3.9375 8.75 8.75s-3.9375 8.75-8.75 8.75h-21.176c-2.7109 0-5.4258-1.3125-7.0859-3.5859l-0.26172-0.35156c-1.5742 2.3633-4.1992 3.9375-7.2617 3.9375h-15.926c-3.0625 0-6.125-1.6641-7.6992-4.5508l-4.375-8.2266c0.61328 1.2266 0.96094 2.625 0.96094 4.0234 0 4.8125-3.9375 8.75-8.75 8.75h-10.586c-3.5859 0-7-2.2734-8.2266-5.7734l-10.586-29.137c-0.4375-1.0508-0.78906-2.2734-0.78906-3.5859v-28.523h-7.6133v28l4.0234 21.789c3.8516 0.875 6.7383 4.375 6.7383 8.4883 0 4.8125-3.9375 8.75-8.8359 8.75h-5.25c-4.1133 0-7.875-2.9766-8.5742-7.1758l-5.25-28.961c-0.17578-0.69922-0.35156-1.4883-0.35156-2.3633v-28.523h-7.6133v58.273c0 4.8125-3.8516 8.75-8.75 8.75-4.8125 0-8.75-3.9375-8.75-8.75v-58.273h-7.6133v28.523c0 0.875-0.085938 1.6641-0.35156 2.3633l-5.1641 28.961c-0.78906 4.1992-4.4609 7.1758-8.5742 7.1758h-5.3359c-4.8125 0-8.75-3.9375-8.75-8.75 0-4.1133 2.8867-7.6133 6.7383-8.4883l3.9375-21.789v-28h-7.6133v28.523c0 1.3125-0.26172 2.5391-0.69922 3.5859l-10.586 29.137c-1.3125 3.5-4.6367 5.7734-8.2266 5.7734h-10.586c-4.8125 0-8.75-3.9375-8.75-8.75s3.9375-8.75 8.75-8.75h4.4609l8.1367-22.488v-27.039h-7.6133v28.523c0 1.8359-0.52344 3.5-1.3984 4.8125l-15.836 29.137c-1.5742 2.8867-4.5508 4.5508-7.6133 4.5508h-15.926c-3.0625 0-5.7734-1.5742-7.3516-3.9375l-0.17578 0.35156c-1.75 2.2734-4.375 3.5859-7.0859 3.5859h-21.176c-4.8984 0-8.75-3.9375-8.75-8.75s3.8516-8.75 8.75-8.75h16.711l17.238-23.801v-61.164c0-9.7109 3.9375-18.551 10.414-24.938 6.3867-6.4766 15.227-10.414 24.938-10.414h38.586v-7.1758c0-6.6484 2.625-12.688 6.9141-17.148v-317.1c0-7.7891 3.2383-14.875 8.3125-19.949 5.25-5.0742 12.25-8.3125 20.039-8.3125s14.875 3.2383 19.949 8.3125c5.1641 5.0742 8.3984 12.164 8.3984 19.949v317.1c4.2891 4.4609 6.9141 10.5 6.9141 17.148v7.1758h38.586c9.8008 0 18.637 3.9375 25.023 10.324 6.3867 6.4766 10.414 15.312 10.414 25.023v35.438zm-4.375 49.523-11.199-15.398c-1.2266-1.4883-2.0117-3.5-2.0117-5.6016v-28.523h-7.6133v26.426l12.602 23.102h8.2266zm-25.637 4.375-11.199-20.562c-0.96094-1.3125-1.4883-2.9766-1.4883-4.8125v-28.523h-7.5234v27.039l8.0508 22.488h4.5508c3.2383 0 6.0391 1.75 7.6133 4.375zm-184.1-4.375h8.2266l12.512-23.102v-26.426h-7.6133v28.523c0 2.1016-0.78906 4.1133-2.0117 5.6016l-11.113 15.398zm115.41-134.66h-21.176c-1.9258 0-3.7617 0.78906-5.0742 2.1016-1.3125 1.2266-2.1016 3.0625-2.1016 5.0742v7.1758h35.523v-7.1758c0-2.0117-0.78906-3.8516-2.1016-5.0742-1.3125-1.3125-3.0625-2.1016-5.0742-2.1016z"/>
 </g>
</svg>
